<svg xmlns="http://www.w3.org/2000/svg" width="160" height="107" viewBox="0 0 160 107"><path d="M75.531 24.843c-.032-.9-.21-3.044.336-3.72.23-.284 1.921-.33 2.372-.339q4.586-.064 9.17.02c.674.008 4.255-.03 4.57.147 1.149.643 2.74 3.18 3.738 4.252 1.29-1.193 3.782-3.444 5.193-4.414 2.533-.093 5.36-.008 7.934.001l.817.523c.207-.14.62-.416.855-.439 1.642-.165 4.14-.132 5.78-.06 1.232 1.04 2.159 2.098 3.303 3.147-.01-.781-.192-2.153.363-2.757.338-.368.857-.446 1.33-.443 1.1.008 3.955-.158 4.818.126.329.108.599.334.833.582.566.595 4.941 6.153 5.085 6.532.165.437.192.978.212 1.441.15 3.477.01 7.01.01 10.494 0 3.65.127 7.453.014 11.08-.014.442-.03.975-.268 1.361-.853.636-5.247.387-6.523.284-1.067-1.057-2.44-2.996-3.345-4.263.066 1.597.649 4.585-1.661 4.392-1.17-.097-2.422-.082-3.596-.066l.027.076c.363.995 1.296 1.698 2.017 2.444 2.018 2.087 1.756 4.778 1.748 7.428l-.013 5.762-.002 6.121c-.002 1.136.055 2.902-.149 3.969l-.007.11c-.014.152-.1.466-.235.51-1.247.408-4.258.255-5.504.141-.822-.075-1.609-1.52-2.043-2.16-.068.533-.355 1.9-.786 2.033-1.08.333-3.721.162-4.772.158l-6.457.032-4.276.035c-3.848.052-3.978.468-6.079-2.997-2.84 1.59-3.217 3.194-6.88 3.028-4.054-.184-8.293.19-12.357-.123-.508-.039-1.29-1.45-1.542-1.873-.265 2.803-2.523 1.744-4.609 2.033-.728.101-1.771-.207-2.522-.167-1.345.072-2.69.138-4.039.104-1.72-.056-1.753.167-2.858-1.18l-.064-.002c-.052.26-.14.619-.364.765-1.179.763-4.908.405-6.229.32-.23-.184-.518-.492-.733-.709-.413.61-.88.797-1.609.83-1.608.076-3.296.092-4.893-.116-.49-.064-1.009-.864-1.316-1.233-1.605-2.28-3.529-4.783-5.012-7.092-.49-.763-.296-6.153-.297-7.342q-.011-4.376.038-8.753c.011-1.222-.06-3.793.224-4.845-2.015-1.883-3.887-4.544-5.408-6.84-.589-.887-1.033-1.656-.925-2.754.119-1.215.061-2.477.323-3.678.155-4.572-.077-9.24.02-13.818.018-.797-.073-2.054 1.033-2.149.881-.05 1.79-.03 2.673-.029l4.972.016h3.746c.772-.007 3.371-.13 3.783.38 1.738 2.15 4.046 4.683 5.498 7.003.034.718.07 1.417.066 2.137 1.285-.014 5.672-.34 6.489.453q.173.171.327.36c-.006-1.375-.093-4.35.164-5.557.756-.84 4.874-4.069 5.891-4.765 1.449-.019 5.508-.25 6.66.223.832.342 1.563 1.025 2.261 1.584.908.728 1.833 1.446 2.68 2.246M51.64 49.81c1.672-.015 3.915-.096 5.562-.039.889.826 1.63 2.125 2.439 3.043.727-.534 1.821-1.441 2.507-1.91.727-.626.967-.807 1.897-.974a26.8 26.8 0 0 1-4.438-5.13l-5.512.012c-.808.005-2.884.178-3.478-.28 1.507 1.88 1.233 2.976 1.023 5.278m27.382-.088c2.553.005 3.326 1.26 5.462 2.55.385.236.947.608 1.343.786l-.065-.913c-.41-.528-4.096-4.235-4.618-4.569-.404.901-1.37 1.486-2.122 2.146"/><path fill="#fbf9fa" d="M35.278 50.031c-2.015-1.883-3.887-4.544-5.408-6.84-.589-.887-1.033-1.656-.925-2.754.119-1.215.061-2.477.323-3.678.058 1.352-.199 2.98.13 4.28.252.992 3.696 5.57 4.525 6.569q.593.7 1.274 1.315c.53.488 1.023.895 1.588 1.34-.346.155-.858.34-1.024.714-.365.823-.283 16.358-.18 18.329.025.455.041.943.227 1.364.464 1.05 5.116 7.501 5.936 8.19.917.167 4.815.336 5.764-.136.36-.18.424-.965.478-1.376.421.602.713 1.042 1.216 1.576.99.028 4.867.266 5.573-.288.342-.593.251-1.402.248-2.101.436.713 1.162 2.193 2.036 2.332 2.401.38 4.703-.208 7.115.108 1.164.153 3.218.047 4.321-.249.707-.252.466-2.56.41-3.173.546.82 1.723 2.68 2.343 3.36 2.155.138 3.96.038 6.127-.02 2.27-.06 6.132.337 8.318-.085.584-.112 4.041-2.559 4.734-3.044 2.4 3.314 1.46 3.259 5.558 3.227l4.483-.036q2.876-.035 5.752-.032c1.401.012 4.256.223 5.52-.126.487-.488.482-1.266.483-1.92q-.003-.587-.021-1.173c.89 1.007 1.403 2.18 2.333 3.18 1.375.145 2.753.117 4.134.107.782-.005 1.196.027 1.83-.467l-.007.11c-.014.152-.1.466-.235.51-1.247.408-4.258.255-5.504.141-.822-.075-1.609-1.52-2.043-2.16-.068.533-.355 1.9-.786 2.033-1.08.333-3.721.162-4.772.158l-6.457.032-4.276.035c-3.848.052-3.978.468-6.079-2.997-2.84 1.59-3.217 3.194-6.88 3.028-4.054-.184-8.293.19-12.357-.123-.508-.039-1.29-1.45-1.542-1.873-.265 2.803-2.523 1.744-4.609 2.033-.728.101-1.771-.207-2.522-.167-1.345.072-2.69.138-4.039.104-1.72-.056-1.753.167-2.858-1.18l-.064-.002c-.052.26-.14.619-.364.765-1.179.763-4.908.405-6.229.32-.23-.184-.518-.492-.733-.709-.413.61-.88.797-1.609.83-1.608.076-3.296.092-4.893-.116-.49-.064-1.009-.864-1.316-1.233-1.605-2.28-3.529-4.783-5.012-7.092-.49-.763-.296-6.153-.297-7.342q-.011-4.376.038-8.753c.011-1.222-.06-3.793.224-4.845"/><path fill="#f0db06" d="M101.448 21.976c2.198-.085 4.878-.017 7.112-.012-.172 7.3-.051 14.965-.028 22.287l-4.94-.001q.018-3.105.004-6.21c-1.162-.442-2.446-1.006-3.608-1.485l-1.433-.586c-.072 2.682.046 5.562.034 8.283l-4.922.012c.003-5.107-.103-10.512.007-15.583.492-.676 6.887-6.181 7.774-6.705"/><path d="M103.408 26.497c.31.397.186 5.892.184 6.772-1.099-.448-2.14-.926-3.217-1.42-.508-.209-1.674-.574-1.767-1.17.374-.78 3.906-3.496 4.8-4.182"/><path fill="#f0db06" d="m110.857 21.965 4.955-.01c1.554 1.626 3.338 3.566 4.996 5.061a133 133 0 0 1-.026-5.052l4.945.001.026 22.286c-1.643.03-3.32.012-4.972.03l-.002-10.299c-.508-.602-4.656-4.942-4.96-4.994l-.09.237c.525 1.774.314 3.873.297 5.705-.009 1.03.045 2.002-.007 3.04.08 1.39.09 2.801.017 4.194-.04.765-.236 1.367-.255 2.1q-2.46-.025-4.922 0z"/><path fill="#201503" d="M115.727 37.214c-.053-.961.008-2.168 0-3.157-.01-1.605-.044-3.23.002-4.832.525 1.774.314 3.873.297 5.705-.009 1.03.045 2.002-.007 3.04-.188-.281-.21-.436-.292-.756"/><path fill="#251803" d="M115.727 37.214c.082.32.104.475.292.756.08 1.39.09 2.801.017 4.194-.04.765-.236 1.367-.255 2.1-.12-.726-.092-2.092-.087-2.867z"/><path fill="#f0db06" d="m36.873 51.54 5.207-.006c.898.555 3.634 2.917 4.54 3.667.968-.883 3.444-2.93 4.448-3.659l5.253.012c.112 6.048.004 12.483.004 18.566l-4.142.012q-.05-7.179.009-14.358c-.616.428-3.45 2.434-3.597 2.97V70.13q-2.034-.029-4.067.012c.047-3.882-.008-7.784.011-11.672-1.145-.95-2.39-1.839-3.598-2.708v14.367a193 193 0 0 0-4.127.003c.22-5.977.072-12.558.06-18.591"/><path fill="#f0db06" d="M64.489 21.987c1.618-.099 3.844-.03 5.504-.022 1.232.839 3.068 2.404 4.233 3.39q.072 2.008.033 4.017a196 196 0 0 1-5.038.035q.024-.998.012-1.997c-.34-.338-.592-.526-.977-.817q-1.2-.004-2.398.013-.945.7-1.792 1.516l-.04 1.122c3.442 1.87 6.874 3.424 10.358 5.18l-.003 5.801a237 237 0 0 0-5.2 4.04 159 159 0 0 0-5.946.023c-1.335-1.21-2.778-2.312-4.123-3.564q-.006-1.816.011-3.633c.73.005 4.43-.105 4.802.102.277.492.163 1.083.116 1.646l.981.81c.834.011 1.782-.028 2.624-.043a31 31 0 0 0 1.727-1.32l-.024-1.015c-3.373-1.762-6.808-3.393-10.206-5.125l-.003-5.93c.719-.732 4.525-3.833 5.349-4.229"/><path fill="#f0db06" d="m30.553 21.965 13.992-.002c.07 1.513.032 3.122.019 4.641L35.49 26.6c.042 1.378.103 2.842-.01 4.21l8.406-.045c-.07 1.497-.014 3.188.003 4.704q-2.751.022-5.502-.002c-.685-.003-2.2-.052-2.834.015l-.074.137a62 62 0 0 1 .04 3.93c3.002.112 6.15-.11 9.071.061.001 1.519.048 3.138-.032 4.643l-9.995.054c-1.302-1.145-2.67-2.248-3.943-3.409-.167-1.909-.076-4.865-.074-6.863z"/><path fill="#f0db06" d="M72.972 51.551c2.238-.054 4.615-.012 6.864-.008 1.77 1.016 4 2.54 5.642 3.743.122 1.142.072 2.936.072 4.131l-.006 6.952c-.862.518-1.667 1.068-2.499 1.63-.627.467-2.175 1.642-2.817 1.847-1.831.585-5.29.303-7.321.298l.032-10.26c-.003-2.853-.089-5.471.033-8.333"/><path d="M77.118 55.445c.694-.007 1.408.004 2.104.006.692.417 1.444.96 2.117 1.425.066 1.895.204 6.117-.008 7.913l-.703.466c-1.578 1.049-1.596.99-3.519.957z"/><path fill="#f0db06" d="M64.299 51.542q3.317-.044 6.634.01l.004 18.58a169 169 0 0 0-4.121 0c-.013-1.584-.078-3.764.047-5.316-.84-.34-1.701-.667-2.547-.996l-1.83-.665.01 6.966-4.166.012c-.065-1.749-.029-3.603-.029-5.361l-.013-8.292c1.282-1.241 4.502-3.811 6.01-4.938"/><path d="m65.845 55.466.957-.01-.005 5.336c-.84-.27-1.7-.618-2.527-.938-.598-.233-1.178-.419-1.788-.617l.014-1.294c.92-.808 2.33-1.758 3.349-2.477"/><path fill="#f0db06" d="m80.057 21.924 11.424.03.002 4.65-9.771-.004q.027 5.171-.003 10.343c.812.86 1.971 1.858 2.865 2.656 1.666.036 3.33-.06 5.043-.009l1.865.026-.016 4.635c-2.892-.014-6.112-.104-8.977.058-1.87-1.836-3.86-3.64-5.77-5.446.01-5.67-.08-11.214.012-16.898z"/><path fill="#f0db06" d="M101.57 51.533q2.07.014 4.142 0c1.257 1.044 3.11 3.057 4.286 4.272l.002-4.264q2.111-.024 4.223.013a705 705 0 0 0-.062 11.631c.008 2.156.14 4.828.006 6.936l-4.17.012-.003-4.376.002-4.154c-1.174-1.262-3.053-3.273-4.279-4.357-.034 4.305.057 8.559-.012 12.875l-4.153.021q.126-9.304.017-18.609"/><path fill="#f0db06" d="m87.597 51.524 11.995.01q.012 1.962.003 3.924l-3.9-.002c-.017 3.577.046 7.184-.064 10.754q1.985.02 3.971-.002a80 80 0 0 0-.014 3.909l-12.01.015q.042-1.962.012-3.924l3.89.054q-.032-5.416-.009-10.833l-3.843.027q.015-1.967-.031-3.932"/><path fill="#fbf9fa" d="M50.164 42.692c.157.126 1 1.256 1.239 1.536.852.151 2.42.104 3.34.103l5.42-.013c2.203 3.127 2.556 3.607 5.437 6.008-.535.034-1.185.035-1.73.048-.663.412-1.106.74-1.711 1.226q-1.334 1.12-2.685 2.221c-.813-1.161-1.732-2.712-2.907-3.455-1.61-.086-3.883-.014-5.54-.008-.099-4.607.785-3.054-2.141-7.214.72.02.856.15 1.278-.452m1.476 7.118c1.672-.015 3.915-.096 5.562-.039.889.826 1.63 2.125 2.439 3.043.727-.534 1.821-1.441 2.507-1.91.727-.626.967-.807 1.897-.974a26.8 26.8 0 0 1-4.438-5.13l-5.512.012c-.808.005-2.884.178-3.478-.28 1.507 1.88 1.233 2.976 1.023 5.278"/><path fill="#f0db06" d="M54.845 31.474c.514-.426 1.6-.682 1.984.035l-.007.103c-.072 1.167.325 3.688-.338 4.462-3.186.071-6.57.017-9.773.016l.011-4.567c2.589-.001 5.573.077 8.123-.049"/><path fill="#201503" d="M56.247 31.452c.266-.026.315-.003.582.057l-.007.103c-.072 1.167.325 3.688-.338 4.462.02-1.332.09-3.06-.016-4.407-.01-.13-.084-.135-.221-.215"/><path fill="#251803" d="M54.845 31.474c.514-.426 1.6-.682 1.984.035-.267-.06-.316-.083-.582-.057-.407.053-.98.028-1.402.022"/><path fill="#fbf9fa" d="M80.704 46.546c.663.384 4.946 4.728 5.682 5.486.011.81-.003 1.487-.043 2.297a66 66 0 0 0-1.764-1.225c-1.299-.92-3.236-2.437-4.76-2.715-.407-.074-1.627-.039-2.099-.03.921-.884 2.001-1.583 2.94-2.51.027-.417.031-.881.044-1.303m-1.682 3.176c2.553.005 3.326 1.26 5.462 2.55.385.236.947.608 1.343.786l-.065-.913c-.41-.528-4.096-4.235-4.618-4.569-.404.901-1.37 1.486-2.122 2.146"/><path fill="#fbf9fa" d="M88.165 34.745c1.41-.028 2.865-.001 4.28.01-.035 1.245-.018 2.58-.022 3.832-1.249-.272-2.92-.183-4.225-.155a236 236 0 0 0-.033-3.687"/><path fill="#fbf9fa" d="M46.557 52.672c.304.004.717.046 1.028.07l-.976.885-1.027-.907z"/><path fill="#fbf9fa" d="M105.403 49.3c.337.168.853.863 1.103 1.181l-1.097-.251z"/></svg>